<?xml version="1.0" encoding="UTF-8"?><svg id="Ebene_2" xmlns="http://www.w3.org/2000/svg" viewBox="0 0 1051.6422 643.7467"><g id="Components"><g id="_91f0ddba-e41c-49f0-97a2-9f6a0e2954a1_1"><path d="M120.3926,143.6434l-7.2929,39.1518h-27.2679L120.3926,2.7019h38.0682l36.4536,180.0934h-28.6225l-7.5602-39.1518h-38.3391ZM139.2913,37.2627l-14.5785,80.731h29.428l-14.8495-80.731Z"/><path d="M241.8937,182.7953h-27.8098V2.7019h43.4719c16.4713,0,27.0006,3.2401,35.6409,10.8003,10.8003,9.1784,16.2004,22.9478,16.2004,40.7701,0,22.6805-8.102,38.3391-24.3024,46.712l26.4624,81.8111h-29.1607l-23.7606-73.9836h-16.7422v73.9836ZM252.1558,83.162c11.8803,0,17.2804-1.3509,21.6005-5.671,4.591-4.5874,6.7511-11.8803,6.7511-21.8678,0-9.7202-2.1601-17.0131-6.7511-21.6005-4.3201-4.3201-9.7202-5.671-21.6005-5.671h-10.2621v54.8104h10.2621Z"/><path d="M361.5093,182.7953h-27.8098V2.7019h27.8098v180.0934Z"/><path d="M389.0481,2.7019h44.0102c35.3699,0,52.1121,18.0895,52.1121,56.4286v67.2325c0,38.3427-16.7422,56.4323-52.1121,56.4323h-44.0102V2.7019ZM430.6273,157.1456c19.7114,0,26.7297-10.2621,26.7297-38.3427v-52.1121c0-28.348-7.0184-38.3391-26.7297-38.3391h-13.7694v128.794h13.7694Z"/><path d="M594.2531,2.7019v136.0833c0,18.8986-1.8891,26.7297-7.8275,34.019-5.671,7.022-14.3112,9.9911-28.0807,9.9911h-16.7422v-26.1915h6.4802c13.5021,0,18.3604-5.1292,18.3604-19.9787V2.7019h27.8098Z"/><path d="M718.1851,125.5539c0,20.2496-2.9692,32.4008-10.2584,42.6592-8.102,11.3421-21.6005,17.2804-38.8809,17.2804s-30.7825-5.9383-38.8809-17.2804c-7.2893-10.2584-10.2621-22.4096-10.2621-42.6592V59.9432c0-20.2532,2.9728-32.4008,10.2621-42.6628,8.0984-11.3385,21.6005-17.2804,38.8809-17.2804s30.7789,5.9419,38.8809,17.2804c7.2893,10.2621,10.2584,22.4096,10.2584,42.6628v65.6107ZM647.7161,125.0121c0,14.3112.8091,19.1732,3.5074,24.5733,3.2401,5.9383,9.9911,9.7202,17.8222,9.7202s14.5785-3.7819,17.8186-9.7202c2.9728-5.671,3.511-9.9911,3.511-24.5733V60.4814c0-14.5785-.5382-18.8986-3.511-24.5697-3.2401-5.9419-9.9875-9.7202-17.8186-9.7202s-14.5822,3.7783-17.8222,9.7202c-2.6983,5.4001-3.5074,10.2584-3.5074,24.5697v64.5306Z"/><path d="M814.311,52.9213c-4.3201-17.8186-12.4221-26.7297-23.7606-26.7297-10.2621,0-18.0895,7.8311-18.0895,18.3604,0,6.2092,2.6983,12.9603,7.5602,18.0895q4.5874,5.1292,23.7606,19.7114c15.1204,11.8803,20.7878,17.0095,26.7297,24.2988,7.2893,8.9111,11.6094,20.7914,11.6094,32.9426,0,27.2716-19.9787,45.8993-49.4103,45.8993-30.7825,0-48.8721-16.4677-54.5431-50.7612l26.7333-7.8275c3.5074,21.6005,12.9603,32.4008,27.8098,32.4008,12.1512,0,20.5205-8.3729,20.5205-20.5205,0-11.3421-5.671-18.6313-26.7297-35.1026-25.1115-19.7114-26.1915-20.7914-32.9426-29.4316-6.4802-8.3693-9.9911-18.8986-9.9911-29.9698,0-25.9206,19.4405-44.2811,46.9829-44.2811,25.6497,0,42.9301,15.3913,50.4903,45.0902l-26.7297,7.8311Z"/><path d="M943.105,28.3516h-53.7304v47.5211h39.69v25.6497h-39.69v55.6231h53.7304v25.6497h-81.5401V2.7019h81.5401v25.6497Z"/><path d="M992.2444,182.7953h-27.8098V2.7019h82.3493v25.6497h-54.5395v48.6012h40.4992v25.6497h-40.4992v80.1928Z"/><path d="M82.5881,243.7807H28.8577v47.5211h39.69v25.6497H28.8577v55.6231h53.7304v25.6497H1.048v-180.0934h81.5401v25.6497Z"/><path d="M129.5674,372.5747h55.3522v25.6497h-83.162v-180.0934h27.8098v154.4437Z"/><path d="M390.6664,398.2244h-24.8406l-48.6012-119.8829v119.8829h-26.4588v-180.0934h28.0807l45.3611,112.0518v-112.0518h26.4588v180.0934Z"/><path d="M514.3311,340.983c0,20.2496-2.9692,32.4008-10.2621,42.6592-8.0984,11.3421-21.6005,17.2804-38.8809,17.2804s-30.7789-5.9383-38.8809-17.2804c-7.2893-10.2584-10.2584-22.4096-10.2584-42.6592v-65.6107c0-20.2532,2.9692-32.4008,10.2584-42.6628,8.102-11.3385,21.6005-17.2804,38.8809-17.2804s30.7825,5.9419,38.8809,17.2804c7.2929,10.2621,10.2621,22.4096,10.2621,42.6628v65.6107ZM443.8586,340.4412c0,14.3112.8091,19.1732,3.511,24.5733,3.2401,5.9383,9.9911,9.7202,17.8186,9.7202s14.5822-3.7819,17.8222-9.7202c2.9692-5.671,3.511-9.9911,3.511-24.5733v-64.5306c0-14.5785-.5418-18.8986-3.511-24.5697-3.2401-5.9419-9.9911-9.7202-17.8222-9.7202s-14.5785,3.7783-17.8186,9.7202c-2.7019,5.4001-3.511,10.2584-3.511,24.5697v64.5306Z"/><path d="M670.9349,398.2244h-26.4588v-132.5723l-31.3207,132.5723h-15.6622l-31.0498-132.5723v132.5723h-26.4588v-180.0934h40.7701l24.8406,113.1318,25.1115-113.1318h40.2283v180.0934Z"/><path d="M727.6381,359.0725l-7.2893,39.1518h-27.2716l34.5608-180.0934h38.0718l36.45,180.0934h-28.6189l-7.5602-39.1518h-38.3427ZM746.5403,252.6918l-14.5822,80.731h29.4316l-14.8495-80.731Z"/><path d="M921.2336,398.2244h-24.8406l-48.6012-119.8829v119.8829h-26.4588v-180.0934h28.0807l45.3611,112.0518v-112.0518h26.4588v180.0934Z"/><path d="M1010.063,398.2244h-27.8098v-70.2017l-40.5028-109.8917h30.7825l24.0279,76.14,24.8406-76.14h30.2407l-41.5792,109.8917v70.2017Z"/><rect x="194.914" y="318.3709" width="64.7299" height="23.3519"/><rect y="455.1315" width="1046.7839" height="188.6152" style="fill:#7f1710;"/><path d="M106.4701,596.9066h-12.8301v-64.2822l-15.187,64.2822h-7.5933l-15.0557-64.2822v64.2822h-12.8306v-87.3242h19.769l12.0449,54.8564,12.1753-54.8564h19.5073v87.3242Z" style="fill:#fff;"/><path d="M133.4369,577.9232l-3.5347,18.9834h-13.2231l16.7578-87.3242h18.46l17.6743,87.3242h-13.8774l-3.666-18.9834h-18.5908ZM138.2811,502.6439h-11.3901v-11.6523h11.3901v11.6523ZM142.6015,526.3402l-7.0698,39.1455h14.2705l-7.2007-39.1455ZM158.3119,502.6439h-11.3901v-11.6523h11.3901v11.6523Z" style="fill:#fff;"/><path d="M227.3046,596.9066h-12.0449l-23.5654-58.1289v58.1289h-12.8306v-87.3242h13.6157l21.9946,54.332v-54.332h12.8306v87.3242Z" style="fill:#fff;"/><path d="M288.9662,596.9066h-12.0449l-23.5654-58.1289v58.1289h-12.8306v-87.3242h13.6157l21.9946,54.332v-54.332h12.8306v87.3242Z" style="fill:#fff;"/><path d="M341.725,522.0198h-26.0532v23.042h19.2456v12.4375h-19.2456v26.9697h26.0532v12.4375h-39.5381v-87.3242h39.5381v12.4375Z" style="fill:#fff;"/><path d="M364.5023,596.9066h-13.4849v-87.3242h21.0781c7.9863,0,13.0923,1.5713,17.2817,5.2373,5.2368,4.4512,7.855,11.1279,7.855,19.7686,0,10.9971-3.9272,18.5908-11.7827,22.6494l12.8306,39.6689h-14.1396l-11.521-35.8721h-8.1172v35.8721ZM369.4774,548.597c5.7607,0,8.3789-.6543,10.4736-2.749,2.2256-2.2256,3.2729-5.7607,3.2729-10.6045,0-4.7139-1.0474-8.248-3.2729-10.4736-2.0947-2.0947-4.7129-2.75-10.4736-2.75h-4.9751v26.5771h4.9751Z" style="fill:#fff;"/><path d="M442.7909,596.9066l-18.7217-87.3242h14.0088l13.0918,66.377,11.521-66.377h13.7466l-16.8887,87.3242h-16.7578Z" style="fill:#fff;"/><path d="M531.8168,569.1517c0,9.8184-1.4399,15.71-4.9751,20.6855-3.9277,5.498-10.4736,8.3789-18.8525,8.3789s-14.9248-2.8809-18.8525-8.3789c-3.5347-4.9756-4.9746-10.8672-4.9746-20.6855v-31.8135c0-9.8193,1.4399-15.7109,4.9746-20.6855,3.9277-5.499,10.4736-8.3789,18.8525-8.3789s14.9248,2.8799,18.8525,8.3789c3.5352,4.9746,4.9751,10.8662,4.9751,20.6855v31.8135ZM497.6464,568.89c0,6.9385.3931,9.2949,1.7021,11.9131,1.5713,2.8809,4.8442,4.7139,8.6406,4.7139s7.0698-1.833,8.6406-4.7139c1.4404-2.749,1.7021-4.8438,1.7021-11.9131v-31.29c0-7.0703-.2617-9.165-1.7021-11.9141-1.5708-2.8799-4.8438-4.7129-8.6406-4.7129s-7.0693,1.833-8.6406,4.7129c-1.3091,2.6182-1.7021,4.9746-1.7021,11.9141v31.29Z" style="fill:#fff;"/><path d="M592.6928,596.9066h-12.0449l-23.5654-58.1289v58.1289h-12.8301v-87.3242h13.6152l21.9951,54.332v-54.332h12.8301v87.3242Z" style="fill:#fff;"/><path d="M689.4408,596.9066h-12.8301v-64.2822l-15.1875,64.2822h-7.5928l-15.0557-64.2822v64.2822h-12.8311v-87.3242h19.7695l12.0449,54.8564,12.1748-54.8564h19.5078v87.3242Z" style="fill:#fff;"/><path d="M749.5307,569.1517c0,9.8184-1.4404,15.71-4.9756,20.6855-3.9277,5.498-10.4736,8.3789-18.8525,8.3789s-14.9248-2.8809-18.8525-8.3789c-3.5342-4.9756-4.9746-10.8672-4.9746-20.6855v-31.8135c0-9.8193,1.4404-15.7109,4.9746-20.6855,3.9277-5.499,10.4736-8.3789,18.8525-8.3789s14.9248,2.8799,18.8525,8.3789c3.5352,4.9746,4.9756,10.8662,4.9756,20.6855v31.8135ZM715.3598,568.89c0,6.9385.3936,9.2949,1.7021,11.9131,1.5713,2.8809,4.8447,4.7139,8.6406,4.7139s7.0703-1.833,8.6406-4.7139c1.4404-2.749,1.7021-4.8438,1.7021-11.9131v-31.29c0-7.0703-.2617-9.165-1.7021-11.9141-1.5703-2.8799-4.8438-4.7129-8.6406-4.7129s-7.0693,1.833-8.6406,4.7129c-1.3086,2.6182-1.7021,4.9746-1.7021,11.9141v31.29Z" style="fill:#fff;"/><path d="M775.4506,596.9066h-13.4844v-87.3242h21.0781c7.9863,0,13.0918,1.5713,17.2812,5.2373,5.2373,4.4512,7.8555,11.1279,7.8555,19.7686,0,10.9971-3.9277,18.5908-11.7832,22.6494l12.8301,39.6689h-14.1387l-11.5215-35.8721h-8.1172v35.8721ZM780.4262,548.597c5.7598,0,8.3789-.6543,10.4736-2.749,2.2256-2.2256,3.2725-5.7607,3.2725-10.6045,0-4.7139-1.0469-8.248-3.2725-10.4736-2.0947-2.0947-4.7139-2.75-10.4736-2.75h-4.9756v26.5771h4.9756Z" style="fill:#fff;"/><path d="M866.7006,553.5716v43.335h-6.9395l-2.4873-7.4629c-4.582,6.2842-9.2949,8.7725-16.3652,8.7725-7.9854,0-14.6631-3.7969-18.0664-10.2119-2.8809-5.6299-3.7969-11.2598-3.7969-23.3037v-24.0898c0-13.877,1.0469-18.8525,5.1055-24.2197,3.7969-5.2373,10.4736-8.1172,18.46-8.1172,9.5576,0,16.627,4.0586,20.5547,11.6514,2.2256,4.3203,3.1426,9.6885,3.1426,18.0674h-13.4854c-.3926-7.0693-.6543-9.0332-1.7021-11.2588-1.7021-3.7969-4.582-5.7607-8.6406-5.7607-3.5352,0-6.5459,1.5713-7.9863,4.4512-1.5703,2.8799-1.9639,5.499-1.9639,12.5684v26.708c0,7.2002.3936,10.9971,1.4404,14.2695,1.4404,4.0586,4.8438,6.5469,9.1641,6.5469,7.0703,0,10.0811-5.1064,10.0811-17.2822v-3.5342h-11.1279v-11.1289h24.6133Z" style="fill:#fff;"/><path d="M918.1508,522.0198h-26.0537v23.042h19.2461v12.4375h-19.2461v26.9697h26.0537v12.4375h-39.5381v-87.3242h39.5381v12.4375Z" style="fill:#fff;"/><path d="M975.8842,596.9066h-12.0449l-23.5654-58.1289v58.1289h-12.8311v-87.3242h13.6162l21.9941,54.332v-54.332h12.8311v87.3242Z" style="fill:#fff;"/><path d="M1000.6254,596.9066h-12.6992v-14.0088h12.6992v14.0088Z" style="fill:#fff;"/><path d="M28.4531,182.7953H.6425V2.7019h82.3511v25.6514H28.4531v48.601h40.5023v25.6492H28.4531v80.1919Z"/></g></g></svg>